PathFileType  4	(X/Y/Z) C:\Users\wagnerel85475\Documents\Thesis\opencap-core\Data\3375ffbc-daeb-4a43-b4f7-ac9899cd4c71\MarkerData\PreAugmentation
DataRate	CameraRate	NumFrames	NumMarkers	Units	OrigDataRate	OrigDataStartFrame	OrigNumFrames
60.0	60.0	11	20	m	60.0	225	897
Frame#	Time	Neck			RShoulder			RElbow			RWrist			LShoulder			LElbow			LWrist			midHip			RHip			RKnee			RAnkle			LHip			LKnee			LAnkle			LBigToe			LSmallToe			LHeel			RBigToe			RSmallToe			RHeel			
		X1	Y1	Z1	X2	Y2	Z2	X3	Y3	Z3	X4	Y4	Z4	X5	Y5	Z5	X6	Y6	Z6	X7	Y7	Z7	X8	Y8	Z8	X9	Y9	Z9	X10	Y10	Z10	X11	Y11	Z11	X12	Y12	Z12	X13	Y13	Z13	X14	Y14	Z14	X15	Y15	Z15	X16	Y16	Z16	X17	Y17	Z17	X18	Y18	Z18	X19	Y19	Z19	X20	Y20	Z20	

225	3.7333333	0.6876800	1.3800800	-0.1018400	0.6843700	1.3807100	0.0772200	0.9666600	1.2667800	0.0742900	1.3137600	1.2902400	-0.0357200	0.7287600	1.3782100	-0.2857100	1.0290400	1.2317700	-0.2952000	1.3407600	1.2659100	-0.1670200	0.5505600	0.8097200	-0.0925200	0.5595500	0.8165100	0.0269700	0.6619200	0.3333700	0.0638800	0.5846000	-0.1894500	0.0780300	0.5661200	0.8065500	-0.2196800	0.6591400	0.3348000	-0.2589800	0.6033600	-0.1785500	-0.2906900	0.8014000	-0.2209700	-0.3551200	0.7583000	-0.2246800	-0.3770600	0.5709600	-0.2243100	-0.2713800	0.7868400	-0.2103700	0.1846000	0.7498600	-0.2143100	0.2001800	0.5647900	-0.2258800	0.0589200
226	3.7500000	0.6827700	1.3836000	-0.1045900	0.6834300	1.3827400	0.0769400	1.0518400	1.2587900	0.1049100	1.3394900	1.2879500	-0.0229800	0.7186900	1.3854400	-0.2815900	1.0372400	1.2392000	-0.2913800	1.3154000	1.2746600	-0.1645800	0.5615000	0.8107600	-0.0981600	0.5673500	0.8117400	0.0279500	0.6557200	0.3344200	0.0582300	0.5846500	-0.1877400	0.0777100	0.5669700	0.8076500	-0.2206400	0.6550100	0.3341900	-0.2525100	0.6033600	-0.1765400	-0.2904000	0.8011600	-0.2228700	-0.3555300	0.7626100	-0.2246600	-0.3785300	0.5713300	-0.2222800	-0.2710500	0.7877500	-0.2100200	0.1847500	0.7552800	-0.2141400	0.2021300	0.5657300	-0.2258900	0.0589900
227	3.7666667	0.6767700	1.3905000	-0.1059900	0.6688100	1.3914300	0.0803900	1.0300100	1.2617900	0.0941000	1.3389900	1.2944900	-0.0244300	0.7034700	1.3906600	-0.2789500	1.0376400	1.2454400	-0.2864500	1.3134700	1.2807900	-0.1690100	0.5726000	0.8163400	-0.0981000	0.5774800	0.8176000	0.0280800	0.6497200	0.3348500	0.0556300	0.5848500	-0.1876200	0.0776400	0.5769600	0.8101100	-0.2199000	0.6488500	0.3337900	-0.2455500	0.6034700	-0.1740700	-0.2900600	0.7964800	-0.2228500	-0.3530700	0.7633700	-0.2246300	-0.3787200	0.5614600	-0.2221900	-0.2748500	0.7778900	-0.2160000	0.1893400	0.7485800	-0.2165900	0.1963200	0.5649100	-0.2258800	0.0588700
228	3.7833333	0.6717100	1.3942400	-0.1088600	0.6560200	1.3957800	0.0761900	0.9628400	1.2876300	0.0759500	1.3275700	1.2990200	-0.0245800	0.7028400	1.3941800	-0.2886300	1.0149400	1.2454600	-0.2852600	1.3036900	1.2786400	-0.1665500	0.5836900	0.8177800	-0.0986700	0.5781700	0.8196300	0.0275200	0.6327400	0.3348200	0.0497900	0.5897100	-0.1859900	0.0750900	0.5839600	0.8114100	-0.2183900	0.6452500	0.3350900	-0.2393500	0.6038300	-0.1763000	-0.2897400	0.7961900	-0.2246500	-0.3527300	0.7578500	-0.2298800	-0.3799800	0.5670500	-0.2205700	-0.2726100	0.7831300	-0.2156900	0.1873100	0.7494100	-0.2179400	0.2008800	0.5657700	-0.2258900	0.0589300
229	3.8000000	0.6659500	1.3971600	-0.1058900	0.6462200	1.4002400	0.0771000	0.9708700	1.2812700	0.0999100	1.3325800	1.3009500	-0.0200100	0.6820100	1.3976300	-0.2883200	1.0019900	1.2505900	-0.2826300	1.2903700	1.2892800	-0.1688500	0.5894600	0.8164100	-0.0960100	0.5817100	0.8191700	0.0260300	0.6320200	0.3341800	0.0443400	0.5851300	-0.1857100	0.0772600	0.5882300	0.8111600	-0.2153700	0.6377400	0.3223600	-0.2350600	0.6036000	-0.1783500	-0.2900100	0.7966000	-0.2289500	-0.3533700	0.7587200	-0.2320900	-0.3805200	0.5664500	-0.2264400	-0.2729200	0.7814400	-0.2162600	0.1828900	0.7483500	-0.2182600	0.1966500	0.5650500	-0.2243100	0.0585300
230	3.8166667	0.6660500	1.3987700	-0.1065900	0.6451800	1.4001400	0.0768000	0.9771300	1.2772700	0.1011600	1.3253000	1.3014700	-0.0182900	0.6764800	1.3990200	-0.2865100	1.0011500	1.2543600	-0.2919300	1.2877900	1.2907100	-0.1703900	0.6005400	0.8218100	-0.0967800	0.6098600	0.8261100	0.0215000	0.6371600	0.3353400	0.0421500	0.5846700	-0.1877400	0.0776700	0.6002000	0.8157600	-0.2163000	0.6395800	0.3319600	-0.2366800	0.6035500	-0.1785300	-0.2900400	0.7962700	-0.2287700	-0.3534200	0.7631700	-0.2319800	-0.3819900	0.5666000	-0.2265000	-0.2729000	0.7867600	-0.2143100	0.1805000	0.7486300	-0.2204000	0.1962500	0.5659200	-0.2242700	0.0585900
231	3.8333333	0.6654700	1.3993200	-0.1059300	0.6399100	1.4047100	0.0750300	0.9811300	1.2761800	0.1035900	1.3182300	1.3013000	-0.0114600	0.6662400	1.3980300	-0.2861400	0.9883700	1.2525300	-0.2892600	1.2783900	1.2932300	-0.1708200	0.6113800	0.8311200	-0.0971400	0.6248000	0.8368100	0.0189800	0.6362000	0.3375000	0.0375000	0.5848700	-0.1875700	0.0776200	0.6040400	0.8259800	-0.2182400	0.6324500	0.3203200	-0.2332000	0.6035600	-0.1782400	-0.2900100	0.7966600	-0.2308100	-0.3529900	0.7639000	-0.2320000	-0.3822200	0.5718500	-0.2246800	-0.2706900	0.7915400	-0.2126600	0.1819500	0.7598500	-0.2164700	0.1995200	0.5650500	-0.2242600	0.0585400
232	3.8500000	0.6658500	1.3987800	-0.1065700	0.6330100	1.4070300	0.0727600	1.0079200	1.2762000	0.0928200	1.3145600	1.3043700	-0.0118700	0.6662300	1.3971200	-0.2865000	0.9967800	1.2563200	-0.2854800	1.2797800	1.2949800	-0.1703500	0.6115100	0.8311300	-0.0975600	0.6259900	0.8383600	0.0182300	0.6312800	0.3308900	0.0411800	0.5842600	-0.1859100	0.0729000	0.6160400	0.8302900	-0.2191900	0.6334000	0.3193500	-0.2333100	0.6035300	-0.1785000	-0.2900400	0.7963000	-0.2306800	-0.3530300	0.7631900	-0.2321300	-0.3820000	0.5723600	-0.2226800	-0.2703400	0.7823100	-0.2200900	0.1830500	0.7587900	-0.2188100	0.1956500	0.5659800	-0.2242900	0.0585400
233	3.8666667	0.6600600	1.3994900	-0.1080400	0.6340900	1.4051400	0.0731000	0.9935800	1.2721600	0.0963800	1.3107700	1.3032500	-0.0111300	0.6664300	1.3957600	-0.2860900	0.9885100	1.2544300	-0.2848500	1.2781300	1.2955400	-0.1708000	0.6222400	0.8345700	-0.0973800	0.6363200	0.8428400	0.0231500	0.6311300	0.3308000	0.0407200	0.5840500	-0.1896200	0.0735900	0.6257400	0.8285400	-0.2184900	0.6375500	0.3220800	-0.2304800	0.6036500	-0.1782400	-0.2899900	0.8014400	-0.2311800	-0.3511000	0.7588500	-0.2341500	-0.3801000	0.5723300	-0.2227000	-0.2703600	0.7779600	-0.2219000	0.1896700	0.7598800	-0.2186500	0.1999000	0.5699100	-0.2255500	0.0566600
234	3.8833333	0.6605400	1.3967100	-0.1086600	0.6330100	1.4051000	0.0728100	0.9838900	1.2732300	0.0879400	1.3068700	1.3040500	-0.0115700	0.6563100	1.3928400	-0.2865100	0.9875400	1.2585900	-0.2856200	1.2716800	1.2965200	-0.1743700	0.6387100	0.8382700	-0.0960700	0.6480500	0.8455300	0.0219000	0.6365900	0.3382000	0.0387500	0.5838200	-0.1897800	0.0736300	0.6376900	0.8326300	-0.2193600	0.6332000	0.3219300	-0.2330000	0.6036500	-0.1786000	-0.2900300	0.8059100	-0.2353400	-0.3492700	0.7629600	-0.2364400	-0.3776000	0.5666200	-0.2226200	-0.2729200	0.7742000	-0.2255900	0.1920500	0.7506300	-0.2218700	0.2051000	0.5707700	-0.2255300	0.0567000
235	3.9000000	0.6491000	1.3933400	-0.1122900	0.6236300	1.3969600	0.0738900	0.9858900	1.2722100	0.0817800	1.3072200	1.3026300	-0.0090400	0.6559100	1.3915700	-0.2862100	0.9839400	1.2522700	-0.2870900	1.2582900	1.2948100	-0.1768000	0.6335300	0.8403700	-0.0929000	0.6527000	0.8488800	0.0246000	0.6493700	0.3551100	0.0343000	0.5841000	-0.1896100	0.0735900	0.6417800	0.8343200	-0.2209100	0.6570400	0.3576200	-0.2385900	0.6076000	-0.1712300	-0.2876300	0.8073800	-0.2390600	-0.3495300	0.7664100	-0.2396100	-0.3795100	0.5598000	-0.2191500	-0.2750000	0.7747800	-0.2281100	0.1956700	0.7472600	-0.2255600	0.2115400	0.5702200	-0.2281900	0.0562800
